<svg width="15" height="18" viewBox="0 0 15 18" fill="none" xmlns="http://www.w3.org/2000/svg">
<path d="M7.26573 5.7027L7.26573 5.47495L7.99646 5.1615L7.99646 5.38926L7.26573 5.7027Z" fill="#434343" stroke="#434343" stroke-width="0.2"/>
<path d="M6.58018 6.85236L6.58018 6.6246L8.68272 5.72272L8.68272 5.95048L6.58018 6.85236Z" fill="#434343" stroke="#434343" stroke-width="0.2"/>
<path d="M3.3795 11.2197L3.3795 10.992L3.65296 10.8747L3.65296 11.1024L3.3795 11.2197Z" fill="#434343" stroke="#434343" stroke-width="0.2"/>
<path d="M4.29283 10.8274L4.29283 10.5996L4.56629 10.4823L4.56629 10.7101L4.29283 10.8274Z" fill="#434343" stroke="#434343" stroke-width="0.2"/>
<path d="M5.20811 10.4351L5.20811 10.2074L5.48158 10.0901L5.48158 10.3178L5.20811 10.4351Z" fill="#434343" stroke="#434343" stroke-width="0.2"/>
<path d="M6.12364 10.0427L6.12364 9.81491L6.3971 9.69761L6.3971 9.92537L6.12364 10.0427Z" fill="#434343" stroke="#434343" stroke-width="0.2"/>
<path d="M7.03697 9.65021L7.03697 9.42246L7.31043 9.30515L7.31043 9.53291L7.03697 9.65021Z" fill="#434343" stroke="#434343" stroke-width="0.2"/>
<path d="M7.95225 9.25806L7.95225 9.03031L8.22572 8.913L8.22572 9.14076L7.95225 9.25806Z" fill="#434343" stroke="#434343" stroke-width="0.2"/>
<path d="M8.86729 8.86573L8.86729 8.63797L9.14076 8.52067L9.14076 8.74843L8.86729 8.86573Z" fill="#434343" stroke="#434343" stroke-width="0.2"/>
<path d="M9.78062 8.47346L9.78062 8.2457L10.0541 8.1284L10.0541 8.35615L9.78062 8.47346Z" fill="#434343" stroke="#434343" stroke-width="0.2"/>
<path d="M10.6959 8.0813L10.6959 7.85355L10.9694 7.73625L10.9694 7.964L10.6959 8.0813Z" fill="#434343" stroke="#434343" stroke-width="0.2"/>
<path d="M11.6092 7.68897L11.6092 7.46121L11.8827 7.34391L11.8827 7.57167L11.6092 7.68897Z" fill="#434343" stroke="#434343" stroke-width="0.2"/>
<path d="M5.43712 13.3312L5.43712 13.1035L5.71058 12.9862L5.71058 13.2139L5.43712 13.3312Z" fill="#434343" stroke="#434343" stroke-width="0.2"/>
<path d="M8.54614 11.5699L8.45423 11.6093L8.45423 11.7093L8.45423 12.5649L8.45423 12.6649L8.54614 12.6254L9.68931 12.1351L9.78121 12.0957L9.78121 11.9957L9.78121 11.1401L9.78121 11.0401L9.68931 11.0796L8.54614 11.5699ZM10.0547 11.8784L10.0547 11.9784L10.1466 11.9389L11.2897 11.4486L11.3817 11.4091L11.3817 11.3091L11.3817 10.4536L11.3817 10.3536L11.2897 10.393L10.1466 10.8834L10.0547 10.9228L10.0547 11.0228L10.0547 11.8784ZM11.2897 10.1653L11.3817 10.1259L11.3817 10.0259L11.3817 9.17035L11.3817 9.07035L11.2897 9.10977L10.1466 9.60014L10.0547 9.63956L10.0547 9.73956L10.0547 10.5951L10.0547 10.6951L10.1466 10.6557L11.2897 10.1653ZM9.78121 9.85686L9.78121 9.75686L9.68931 9.79628L8.54614 10.2866L8.45423 10.3261L8.45423 10.4261L8.45423 11.2816L8.45423 11.3816L8.54614 11.3422L9.68931 10.8518L9.78121 10.8124L9.78121 10.7124L9.78121 9.85686ZM8.18077 12.896L8.18077 10.3295C8.18077 10.2932 8.19291 10.2627 8.21168 10.2371C8.23168 10.2098 8.26606 10.179 8.3175 10.157L11.5184 8.78394C11.5699 8.76185 11.6043 8.76307 11.6242 8.77319C11.643 8.78267 11.6551 8.80271 11.6551 8.83917L11.6551 11.4057C11.6551 11.4422 11.643 11.4727 11.6242 11.4982C11.6043 11.5255 11.5699 11.5562 11.5184 11.5783L8.3175 12.9513C8.26601 12.9734 8.23163 12.9721 8.21165 12.962C8.19293 12.9525 8.18077 12.9325 8.18077 12.896Z" fill="#434343" stroke="#434343" stroke-width="0.2"/>
<path d="M13.4841 12.1183L13.4841 12.2183L13.576 12.1789L14.3986 11.826L14.3986 12.0537L13.3474 12.5047L1.91563 17.4083L0.864363 17.8593L0.864363 17.6315L1.687 17.2786L1.7789 17.2392L1.7789 17.1392L1.7789 16.4976C1.7789 16.4611 1.79106 16.4306 1.80979 16.4051C1.82976 16.3778 1.86414 16.3471 1.91563 16.325L2.3729 16.1289L2.4648 16.0895L2.4648 15.9895L2.4648 10.8564L2.4648 10.7564L2.3729 10.7958L1.687 11.09C1.6355 11.1121 1.60112 11.1109 1.58115 11.1008C1.56243 11.0913 1.55027 11.0712 1.55027 11.0348L1.55027 10.2434C1.55027 10.2089 1.56011 10.1769 1.59552 10.1397L1.7327 9.99528L1.7789 9.94665L1.7789 9.93799L7.54379 3.45782L7.54411 3.45746C7.57785 3.41931 7.60655 3.39851 7.63149 3.38781C7.65644 3.37711 7.68513 3.3733 7.71887 3.3825L7.71943 3.38264L9.63996 3.88489L9.7811 3.9218L9.7811 3.73991L9.7811 2.79884C9.7811 2.76238 9.79326 2.73191 9.81199 2.70636C9.83196 2.67911 9.86634 2.6484 9.91784 2.62631L11.7469 1.84173C11.7984 1.81964 11.8328 1.82086 11.8528 1.83097C11.8715 1.84046 11.8836 1.8605 11.8836 1.89696L11.8836 4.44212L11.8836 4.49715L11.9264 4.50827L13.664 4.96064L13.6639 4.96074L13.6675 4.96143C13.7029 4.96832 13.7127 4.99186 13.7127 5.02636L13.7127 5.81772C13.7127 5.85417 13.7006 5.88465 13.6818 5.9102C13.6619 5.93745 13.6275 5.96816 13.576 5.99025L12.8901 6.28446L12.7982 6.32389L12.7982 6.42389L12.7982 11.557L12.7982 11.657L12.8901 11.6176L13.3474 11.4214C13.3988 11.3993 13.4332 11.4005 13.4532 11.4107C13.4719 11.4201 13.4841 11.4402 13.4841 11.4766L13.4841 12.1183ZM11.6102 2.22814L11.6102 2.12814L11.5183 2.16756L10.1465 2.75599L10.0546 2.79542L10.0546 2.89542L10.0546 3.1093L10.0546 3.2093L10.1465 3.16987L11.5183 2.58144L11.6102 2.54202L11.6102 2.44202L11.6102 2.22814ZM10.1465 3.39763L10.0546 3.43705L10.0546 3.53705L10.0546 3.94342L10.0546 3.99793L10.0967 4.00941L11.4685 4.38343L11.6102 4.42207L11.6102 4.2386L11.6102 2.86978L11.6102 2.76978L11.5183 2.8092L10.1465 3.39763ZM1.91563 10.1364L1.82373 10.1758L1.82373 10.2758L1.82373 10.7038L1.82373 10.8038L1.91563 10.7644L2.60154 10.4702L12.6614 6.15499L13.3474 5.86077L13.4393 5.82135L13.4393 5.72135L13.4393 5.25082L13.4393 5.19608L13.3969 5.18476L7.68101 3.65842L7.63152 3.6452L7.58201 3.70087L2.41487 9.51026L2.14987 9.80819L2.46436 9.67329L10.9691 6.02519L10.9691 6.25295L1.91563 10.1364ZM2.83017 10.5997L2.73827 10.6391L2.73827 10.7391L2.73827 15.8722L2.73827 15.9722L2.83017 15.9327L3.74471 15.5405L3.83661 15.501L3.83661 15.401L3.83661 12.4067L3.83661 12.3067L3.74471 12.3462L3.37934 12.5029L3.37934 12.2751L3.97334 12.0203L6.48832 10.9415L7.08232 10.6867L7.08232 10.9145L6.71696 11.0712L6.62505 11.1106L6.62505 11.2106L6.62505 14.2049L6.62505 14.3049L6.71696 14.2655L12.4328 11.8137L12.5247 11.7743L12.5247 11.6743L12.5247 6.54119L12.5247 6.44119L12.4328 6.48061L2.83017 10.5997ZM4.20198 12.15L4.11008 12.1894L4.11008 12.2894L4.11008 15.2837L4.11008 15.3837L4.20198 15.3443L6.25969 14.4617L6.35159 14.4222L6.35159 14.3222L6.35159 11.3279L6.35159 11.2279L6.25969 11.2674L4.20198 12.15ZM2.05237 17.0219L2.05237 17.1219L2.14427 17.0825L13.1187 12.375L13.2106 12.3356L13.2106 12.2356L13.2106 11.8078L13.2106 11.7078L13.1187 11.7472L12.6614 11.9434L6.48832 14.5913L3.97334 15.6701L2.60154 16.2586L2.14427 16.4547L2.05237 16.4941L2.05237 16.5941L2.05237 17.0219Z" fill="#434343" stroke="#434343" stroke-width="0.2"/>
</svg>
